<svg id="Layer_1" data-name="Layer 1" xmlns="http://www.w3.org/2000/svg" width="800" height="424" viewBox="0 0 800 424"><defs><style>.cls-1{fill:#241a16;}.cls-2{fill:#ae283f;}.cls-3{fill:none;}</style></defs><title>grand-millennium-logo-freelogovectors.net_</title><g id="Layer_2" data-name="Layer 2"><g id="圖層_1" data-name="圖層 1"><path class="cls-1" d="M309.83,437.35a13.52,13.52,0,0,0-3.1-1.94c-1.16-.39-2.71-1.16-3.87-1.55a19.19,19.19,0,0,0-4.64-.38,24.11,24.11,0,0,0-7.36,1.16,15.25,15.25,0,0,0-5.8,3.87,20.62,20.62,0,0,0-3.87,6.19,22.74,22.74,0,0,0-1.55,8.9,32.44,32.44,0,0,0,1.16,8.52,16.8,16.8,0,0,0,3.87,6.19,19.11,19.11,0,0,0,5.81,3.87,25.12,25.12,0,0,0,7.74,1.55h2.71l2.7-.39a9.73,9.73,0,0,0,2.71-.78c.78-.38,1.55-.38,1.94-.77V455.54a8.64,8.64,0,0,0,3.09.38h1.55a1.43,1.43,0,0,0,1.16-.38,26.85,26.85,0,0,1-.38,4.64c-.39,2.32,0,4.64,0,8.13v5.42a24.86,24.86,0,0,0-3.1,1.16,16.77,16.77,0,0,1-4.26.77l-4.64.77c-1.16,0-2.71.39-3.87.39a32.63,32.63,0,0,1-10.45-1.55,21.8,21.8,0,0,1-7.74-4.25,18,18,0,0,1-5-7,21.19,21.19,0,0,1-1.55-9.67A21.65,21.65,0,0,1,275,444.7a17.86,17.86,0,0,1,5-7,21.8,21.8,0,0,1,7.74-4.25,36.43,36.43,0,0,1,15.86-1.16c1.55.38,3.1.38,4.26.77l3.48,1.16c.78.39,1.94.77,2.71,1.16a5.63,5.63,0,0,0-.77,2.32,5.72,5.72,0,0,0-.39,2.71h-.77A10.74,10.74,0,0,0,309.83,437.35Z" transform="translate(0 -188)"/><path class="cls-1" d="M333.05,448.57v-8.13l-.39-8.12h13.93a22.41,22.41,0,0,1,5,.38,14,14,0,0,1,4.26,1.55,6.9,6.9,0,0,1,2.71,3.1,10.34,10.34,0,0,1-.39,10.06,7.53,7.53,0,0,1-3.48,3.48,40.09,40.09,0,0,1-4.26,2.32c-1.16.39-2.71.78-4.25,1.17l1.93,2.7,3.1,3.87a41.93,41.93,0,0,1,3.48,4.26,40.86,40.86,0,0,0,3.48,4.26,27.65,27.65,0,0,1,3.1,3.87,17.15,17.15,0,0,0,2.32,2.71h-7.74l-2.71-3.87a55,55,0,0,0-4.26-5.81c-1.54-1.93-3.09-3.87-4.64-6.19a30.3,30.3,0,0,0-4.64-5H337.3v12.38c0,2.71.39,5.42.39,7.74H331.5c0-2.71.39-5.41.39-7.74v-8.12Zm5,3.48c.77,0,1.16.39,1.93.39h2.33a13.1,13.1,0,0,0,3.87-.39,11.66,11.66,0,0,0,3.87-1.54,11.83,11.83,0,0,0,3.09-3.1,10.25,10.25,0,0,0,1.16-4.65,13.71,13.71,0,0,0-.77-3.87c-.39-1.16-1.55-1.93-2.32-2.7a5.13,5.13,0,0,0-3.1-1.17,10.88,10.88,0,0,0-3.48-.38h-3.49l-2.32.38.39,7v7Z" transform="translate(0 -188)"/><path class="cls-1" d="M413.93,475.27h-6.58c-.38-.77-.77-2.32-1.16-3.48s-1.16-2.71-1.55-4.26l-1.93-4.64-1.94-4.26H384.52c-1.16,3.1-2.71,6.58-3.48,9.29s-1.94,5.42-2.33,7.35h-4.64c3.48-7.35,6.58-14.7,10.06-22.06,3.1-7.35,6.58-14.7,9.68-22.06H395a47.34,47.34,0,0,1,3.1,7.74c1.16,2.71,2.32,5.81,3.48,8.52s2.32,5.8,3.48,8.51l3.48,8.13,3.1,6.58Zm-27.86-19.35H400l-7-15.86Z" transform="translate(0 -188)"/><path class="cls-1" d="M449.15,459Q441,450.3,432.9,441.6v34.06h-4.65a6.74,6.74,0,0,1,.39-2.32c.39-1.16,0-2.32.39-3.87s0-3.1.38-5l.39-5.42V431.93H431l8.52,8.9,8.51,9.29,8.13,8.9c2.71,2.71,4.64,5,7,7V444.7a110.78,110.78,0,0,0-.38-11.61c.77,0,1.54.39,2.32.39s1.55,0,1.93-.39a21.28,21.28,0,0,1-.38,4.26c-.39,1.93,0,3.87-.39,5.8s0,4.26-.39,6.19a18.26,18.26,0,0,0,0,4.65v22.83H465C459.6,470.63,454.57,464.82,449.15,459Z" transform="translate(0 -188)"/><path class="cls-1" d="M485.92,448.57v-8.13a56.55,56.55,0,0,0-.39-8.12h18.58a24.63,24.63,0,0,1,9.28,1.54,17.53,17.53,0,0,1,6.58,4.26,16.39,16.39,0,0,1,3.87,6.58,32.78,32.78,0,0,1,1.16,8.9,24.24,24.24,0,0,1-2.32,10.45,18.87,18.87,0,0,1-5.42,7,19.4,19.4,0,0,1-7.35,3.87,27,27,0,0,1-7.74,1.16h-17c0-2.71.39-5.42.39-7.74v-8.13Zm5,10.84c0,4.64,0,8.9.38,13.54a10.71,10.71,0,0,0,3.49.39h4.64a42.38,42.38,0,0,0,7-.78,13.29,13.29,0,0,0,6.19-3.09,18.57,18.57,0,0,0,4.64-6.19,21.91,21.91,0,0,0,1.55-10.07,22.56,22.56,0,0,0-1.55-8.9,11.56,11.56,0,0,0-3.87-5.42,10.13,10.13,0,0,0-5.8-2.7,42.48,42.48,0,0,0-7.35-.78h-5.42c-1.94,0-3.1.39-4.26.39,0,1.93-.39,4.26-.39,6.19v6.58Z" transform="translate(0 -188)"/><path class="cls-1" d="M55.56,544.16c4.26,8.13,8.9,16.64,13.55,25.54l2.7-5c1.17-2.32,2.33-4.64,3.87-7.35,1.17-2.71,3.1-5.8,5-9.29L86.13,538l5.42-10.06c1.94-3.1,3.48-6.19,5-9.29h1.16c.78,5.8,1.16,11.61,1.94,17,.39,5.42,1.16,10.83,1.93,16.25.39,5.42,1.17,10.45,1.94,15.87s1.16,10.45,1.93,15.48H97c-.77-8.13-1.16-15.87-1.94-23.61S93.49,544.16,92.71,536h0c-4.25,7.74-8.51,15.49-12.38,23.23s-8.13,15.48-11.61,24h-.78L56.33,560c-3.87-7.74-8.12-15.87-12-24h0c-.39,3.87-.78,7.74-1.55,12.39s-1.16,8.9-1.55,13.16-.77,8.51-1.16,12.38a87.42,87.42,0,0,0-.39,9.29H33.5c.77-5,1.55-10.06,2.32-15.87s1.55-11.22,2.32-16.64,1.55-11.22,2.33-16.64,1.16-10.45,1.93-15.48h.78C47.43,527.91,51.69,536,55.56,544.16Z" transform="translate(0 -188)"/><path class="cls-1" d="M138,532.16c0-3.87-.38-7.74-.38-12l2.32.38h4.26l2.32-.38c0,3.87-.39,8.12-.39,12V572c0,3.87.39,7.74.39,11.61h-9.29c0-3.87.39-7.74.39-11.61s.38-7.74.38-12V544.16A61.65,61.65,0,0,0,138,532.16Z" transform="translate(0 -188)"/><path class="cls-1" d="M183.27,532.16c0-3.87-.38-7.74-.38-12l2.32.38h4.26l2.32-.38c0,3.87-.39,8.12-.39,12s-.39,7.74-.39,12v35.22H203.4a71.61,71.61,0,0,0,12.77-1.16,6.52,6.52,0,0,0-.39,2.71,4.87,4.87,0,0,0,.39,2.32H182.5c0-3.87.39-7.74.39-11.61s.38-8.13.38-12.38v-27.1Z" transform="translate(0 -188)"/><path class="cls-1" d="M248.68,532.16c0-3.87-.39-7.74-.39-12l2.32.38h4.26l2.32-.38c0,3.87-.38,8.12-.38,12s-.39,7.74-.39,12v35.22H268.8a71.53,71.53,0,0,0,12.77-1.16,6.68,6.68,0,0,0-.38,2.71,5,5,0,0,0,.38,2.32h-34c0-3.87.38-7.74.38-11.61s.39-7.74.39-12V543.77A115.47,115.47,0,0,0,248.68,532.16Z" transform="translate(0 -188)"/><path class="cls-1" d="M314.08,531.78c0-3.87-.38-7.74-.38-11.61l8.12.38h16.26l8.13-.38c0,.77-.39,1.93-.39,2.71a6.57,6.57,0,0,0,.39,2.71l-5.42-.39-5-.78L330,524h-7.74a29,29,0,0,1-.39,5.8c-.38,1.94,0,3.87,0,6.19v12h7.36l5.8-.39,5-.38c1.55,0,3.1-.39,4.26-.39,0,.77-.39,1.94-.39,2.71a6.54,6.54,0,0,0,.39,2.71,23.62,23.62,0,0,0-5.42-.39c-2.32,0-4.25-.38-6.19-.38H321.82v26.7h13.55c2.32,0,4.64-.39,6.58-.39a20,20,0,0,0,5-.77c0,.38-.39.77-.39,1.55v1.54a4.91,4.91,0,0,0,.39,2.33H313.31c0-3.87.39-7.74.39-11.61s.38-7.74.38-12V531.78Z" transform="translate(0 -188)"/><path class="cls-1" d="M408.9,559.64c-8.13-8.51-15.87-17-24-25.54v49.15h-6.58a30.49,30.49,0,0,0,.38-3.48c0-1.94.39-3.49.39-5.81s.39-4.64.39-7.35.39-5.42.39-8.13a50.22,50.22,0,0,1,.38-7.74c.39-2.32,0-5,0-7V528.68c0-4.26.78-7.35.78-9.67h1.54l12,13.15q6.39,7,12.77,13.94l12,12.77c3.87,3.87,7,7.35,10.06,10.45V538c0-6.19-.38-12-.38-17.42a8.48,8.48,0,0,0,6.19,0c0,1.17-.39,3.49-.39,6.2s-.39,5.41-.39,8.51-.38,6.19-.38,8.9V584.8H432.9Z" transform="translate(0 -188)"/><path class="cls-1" d="M500.24,559.64l-24-25.54a52.18,52.18,0,0,1-.39,7c-.38,3.09,0,7,0,11.61v27.86c0,1.16,0,2.32.39,2.71h-6.58a10.62,10.62,0,0,0,.39-3.48c0-1.55.39-3.49.39-5.81s.38-4.64.38-7.35.39-5.42.39-8.13.39-5.42.39-7.74V528.68a65.34,65.34,0,0,0-.39-9.67h1.55l12.77,13.15L498.3,546.1l12,12.77c3.87,3.87,7,7.35,10.06,10.45V538c0-6.19-.39-12-.77-17.42a8.43,8.43,0,0,0,3.09.39c1.16,0,1.94-.39,3.1-.39,0,1.17-.39,3.49-.39,6.2s-.39,5.41-.39,8.51-.38,6.19-.38,8.9V584.8h-1.16C515.72,576.28,508,568.16,500.24,559.64Z" transform="translate(0 -188)"/><path class="cls-1" d="M561.38,532.16c0-3.87-.38-7.74-.38-12l2.32.38h4.26l2.32-.38c0,3.87-.39,8.12-.39,12s-.39,7.74-.39,12V560c0,3.87,0,8.13.39,12a115.47,115.47,0,0,1,.39,11.61h-9.29A115.47,115.47,0,0,0,561,572c0-3.87.38-7.74.38-12V544.16A61.65,61.65,0,0,0,561.38,532.16Z" transform="translate(0 -188)"/><path class="cls-1" d="M654.65,550V529.84c0-4.64-.38-8.12-.38-9.67l1.93.38h1.94a6.73,6.73,0,0,0,2.71-.38,46.52,46.52,0,0,0-.39,7.74c0,3.09-.39,6.19-.39,9.67s-.39,7-.39,10.45a96,96,0,0,1-.38,10.45,33.66,33.66,0,0,1-1.94,10.84,27.54,27.54,0,0,1-5,8.51,18,18,0,0,1-8.13,5A27.21,27.21,0,0,1,633,584.41c-9.29,0-15.87-1.93-20.12-6.19s-6.2-10.84-6.2-19.74a49,49,0,0,1,.39-7.74c0-2.32.39-4.64.39-7,0-5,0-9.67-.39-13.93s-.39-7.35-.39-10.06c.78,0,1.55.39,2.33.39h4.25l1.94-.39c0,1.16-.39,3.1-.39,5.42s-.39,4.64-.39,7.35-.38,5.81-.38,8.9v16.64a37.73,37.73,0,0,0,.77,6.58,19.27,19.27,0,0,0,1.94,6.2,15.26,15.26,0,0,0,9.28,8.51c2.71.77,5.81,1.55,8.52,1.16A20.85,20.85,0,0,0,643,579c2.33-.77,3.87-2.32,5.81-3.87a16.11,16.11,0,0,0,3.48-5.42,32.35,32.35,0,0,0,1.94-6.57,43.59,43.59,0,0,0,.77-7A33.07,33.07,0,0,1,654.65,550Z" transform="translate(0 -188)"/><path class="cls-1" d="M716.58,544.16c4.25,8.13,8.9,16.64,13.54,25.54l2.71-5c1.16-2.32,2.32-4.64,3.87-7.35s3.1-5.8,5-9.29L747.15,538c1.93-3.48,3.48-6.58,5.42-10.06s3.48-6.19,5-9.29h1.16c.77,5.8,1.16,11.61,1.93,17s1.17,10.83,1.94,16.25,1.16,10.45,1.93,15.87,1.17,10.45,1.94,15.48h-8.9c-.39-8.13-1.16-15.87-1.94-23.61s-1.54-15.48-2.32-23.61h0c-4.26,7.74-8.51,15.49-12.38,23.23s-8.13,15.48-11.61,24h-1.16Q723,571.64,716.58,560c-3.87-7.74-8.13-15.87-12-24h-.39c-.39,3.87-.77,7.74-1.55,12.39s-1.16,8.9-1.54,13.16-.78,8.51-1.17,12.38a89.71,89.71,0,0,0-.38,9.29,18.65,18.65,0,0,0-6.58,0c.77-5,1.55-10.06,2.32-15.87s1.55-11.22,2.32-16.64,1.55-11.22,2.32-16.64,1.17-10.45,1.55-15.48H703C708.06,527.91,712.32,536,716.58,544.16Z" transform="translate(0 -188)"/><rect class="cls-2" x="366.33" y="60.1" width="13.93" height="136.23"/><rect class="cls-2" x="418.58" y="60.1" width="13.93" height="136.23"/><rect class="cls-2" x="444.51" y="27.2" width="13.93" height="169.51"/><rect class="cls-2" x="340.4" y="27.2" width="13.93" height="169.51"/><rect class="cls-2" x="392.65" y="89.12" width="13.93" height="107.59"/></g></g><rect class="cls-3" width="800" height="424"/></svg>